<svg width="383" height="27" viewBox="0 0 383 27" fill="none" xmlns="http://www.w3.org/2000/svg">
<path d="M8.28709 5.12799C6.00858 5.12799 4.86932 7.35012 4.86932 11.7944V13.5557C4.86932 15.6664 5.17067 17.3237 5.77338 18.5277C6.37608 19.7168 7.26544 20.3113 8.44144 20.3113C10.0585 20.3113 11.5432 18.7209 12.8956 15.54H13.2925L13.1381 20.512H12.8956C12.8074 20.3485 12.7265 20.237 12.653 20.1775C12.5795 20.1032 12.4693 20.0661 12.3223 20.0661C12.19 20.0661 11.6608 20.185 10.7347 20.4228C9.80855 20.6457 8.86775 20.7572 7.91224 20.7572C5.51613 20.7572 3.65656 20.1032 2.33356 18.7952C1.02525 17.4872 0.371094 15.5252 0.371094 12.9092C0.371094 10.2783 1.05465 8.24938 2.42176 6.82246C3.80357 5.39554 5.65578 4.68208 7.97839 4.68208C8.8751 4.68208 9.74975 4.80099 10.6024 5.03881C11.4697 5.26177 11.9768 5.37325 12.1238 5.37325C12.2708 5.37325 12.3811 5.34352 12.4546 5.28406C12.5281 5.20974 12.6089 5.09083 12.6971 4.92733H12.9397L13.1161 9.76548H12.7192C12.0577 8.26424 11.3741 7.11974 10.6685 6.33196C9.9776 5.52931 9.1838 5.12799 8.28709 5.12799Z" fill="#A7A8AE"/>
<path d="M23.7861 20.1107L22.1764 15.2948H17.8105L16.1127 20.1107H17.7664V20.5343H14.3927V20.1107H15.4291L21.0519 4.79356H22.86L28.4166 20.1107H29.4309V20.5343H22.2205V20.1107H23.7861ZM20.0817 8.96284L18.009 14.8043H22L20.0817 8.96284ZM18.8248 0.0668873L19.1776 0C19.3834 0.59455 19.6921 0.995871 20.1037 1.20396C20.53 1.41206 21.1621 1.5161 22 1.5161C22.8526 1.5161 23.4774 1.41949 23.8743 1.22626C24.2859 1.03303 24.5799 0.624277 24.7563 0L25.0871 0.0668873C24.8225 2.62345 23.7787 3.90173 21.9559 3.90173C20.8534 3.90173 20.0817 3.53014 19.6407 2.78695C19.2291 2.11808 18.9571 1.2114 18.8248 0.0668873Z" fill="#A7A8AE"/>
<path d="M30.0337 4.92733H37.9717V5.41784H35.6344V20.0438H36.4282C37.6777 20.0438 38.67 19.6573 39.405 18.8844C40.1547 18.1115 40.9118 16.9224 41.6762 15.3171H42.1392L41.7203 20.5343H30.0337V20.0438H31.3347V5.41784H30.0337V4.92733Z" fill="#A7A8AE"/>
<path d="M52.2316 20.1107L50.622 15.2948H46.256L44.5582 20.1107H46.2119V20.5343H42.8383V20.1107H43.8746L49.4974 4.79356H51.3055L56.8622 20.1107H57.8765V20.5343H50.6661V20.1107H52.2316ZM48.5272 8.96284L46.4545 14.8043H50.4456L48.5272 8.96284ZM47.2704 0.0668873L47.6232 0C47.829 0.59455 48.1377 0.995871 48.5493 1.20396C48.9756 1.41206 49.6077 1.5161 50.4456 1.5161C51.2982 1.5161 51.9229 1.41949 52.3198 1.22626C52.7314 1.03303 53.0254 0.624277 53.2018 0L53.5326 0.0668873C53.268 2.62345 52.2243 3.90173 50.4015 3.90173C49.299 3.90173 48.5272 3.53014 48.0862 2.78695C47.6746 2.11808 47.4027 1.2114 47.2704 0.0668873Z" fill="#A7A8AE"/>
<path d="M69.8437 4.92733L70.0642 10.5235H69.6452C68.9984 8.54666 68.4251 7.20149 67.9253 6.48803C67.4255 5.7597 66.7052 5.39554 65.7644 5.39554H65.4998V20.0661H67.374V20.5343H59.3257V20.0661H61.2V5.39554H60.9134C59.9726 5.39554 59.2449 5.77457 58.7304 6.53262C58.2159 7.27581 57.6499 8.60611 57.0325 10.5235H56.6136L56.8341 4.92733H69.8437Z" fill="#A7A8AE"/>
<path d="M81.2512 13.6449V11.995C81.2512 9.27498 81.1189 7.55822 80.8543 6.84476C80.5603 6.02725 80.1413 5.52188 79.5974 5.32865C79.2887 5.20974 78.9138 5.15029 78.4728 5.15029C78.0318 5.15029 77.6496 5.20974 77.3262 5.32865C77.0175 5.44756 76.7603 5.65566 76.5545 5.95293C76.3487 6.25021 76.1796 6.56235 76.0473 6.88935C75.9297 7.21635 75.8342 7.67713 75.7607 8.27168C75.6725 9.13377 75.6284 10.4046 75.6284 12.0842V13.6895C75.6284 15.5029 75.6945 16.796 75.8268 17.569C75.9738 18.327 76.1502 18.8695 76.356 19.1965C76.8117 19.9249 77.5173 20.289 78.4728 20.289C79.6342 20.289 80.3839 19.7985 80.722 18.8175C81.0748 17.8216 81.2512 16.0974 81.2512 13.6449ZM78.4287 20.7572C75.9738 20.7572 74.1363 20.0884 72.9162 18.7506C71.7108 17.398 71.1081 15.4509 71.1081 12.9092C71.1081 10.3526 71.7549 8.346 73.0485 6.88935C74.3568 5.41784 76.2017 4.68208 78.5831 4.68208C80.9645 4.68208 82.7579 5.38068 83.9633 6.77787C85.1834 8.1602 85.7935 10.1296 85.7935 12.6862C85.7935 15.2428 85.1761 17.2271 83.9413 18.6391C82.7212 20.0512 80.8837 20.7572 78.4287 20.7572Z" fill="#A7A8AE"/>
<path d="M93.931 12.6416H92.7624V20.1107H94.1956V20.5343H87.0293V20.1107H88.4626V5.35095H87.0293V4.92733H93.6885C95.5995 4.92733 96.9519 5.03138 97.7457 5.23947C98.5542 5.4327 99.1202 5.67052 99.4436 5.95293C100.149 6.53262 100.502 7.45417 100.502 8.71759C100.502 9.98101 100.193 10.8877 99.5759 11.4377C98.9585 11.9727 98.0177 12.2923 96.7534 12.3964V12.4633C97.9442 12.6268 98.7747 12.9835 99.2451 13.5334C99.7155 14.0834 99.9507 15.005 99.9507 16.2981V17.4798C99.9507 18.2527 99.9875 18.7729 100.061 19.0405C100.149 19.308 100.326 19.4418 100.59 19.4418C100.855 19.4418 101.061 19.3229 101.208 19.0851C101.369 18.8324 101.516 18.3121 101.649 17.5244L102.023 17.569C101.862 18.8324 101.575 19.6796 101.163 20.1107C100.767 20.5417 99.9654 20.7572 98.76 20.7572C97.5546 20.7572 96.6946 20.4748 96.1801 19.91C95.6803 19.3303 95.4304 18.2527 95.4304 16.6771V15.0495C95.4304 14.2172 95.3202 13.6078 95.0997 13.2213C94.8939 12.8348 94.5043 12.6416 93.931 12.6416ZM92.7624 5.35095V12.218H93.468C94.3059 12.218 94.9233 11.9579 95.3202 11.4377C95.7318 10.9174 95.9376 10.0702 95.9376 8.89595V8.24938C95.9376 7.07514 95.7391 6.30223 95.3422 5.93064C94.96 5.54418 94.3426 5.35095 93.49 5.35095H92.7624Z" fill="#A7A8AE"/>
<path d="M102.946 4.92733H114.412L114.632 9.34187H114.235C113.618 7.84063 112.971 6.81503 112.295 6.26507C111.619 5.70025 110.626 5.41784 109.318 5.41784H108.546V12.3072H109.296C109.987 12.3072 110.568 12.0471 111.038 11.5268C111.508 10.9917 111.839 10.2783 112.03 9.38646H112.361V15.986H111.986C111.722 14.8712 111.361 14.076 110.906 13.6003C110.465 13.1247 109.855 12.8869 109.076 12.8869H108.546V20.0438H109.384C110.737 20.0438 111.883 19.635 112.824 18.8175C113.78 18 114.434 16.9521 114.786 15.6738H115.227L115.051 20.5343H102.946V20.0438H104.247V5.41784H102.946V4.92733Z" fill="#A7A8AE"/>
<path d="M123.193 20.289C123.928 20.289 124.575 20.0884 125.134 19.687C125.707 19.2857 125.994 18.6837 125.994 17.8811C125.994 17.0636 125.685 16.4393 125.068 16.0083C124.465 15.5772 123.598 15.2056 122.466 14.8935C121.348 14.5665 120.533 14.2841 120.018 14.0462C119.518 13.8084 119.04 13.4963 118.585 13.1098C117.673 12.3369 117.218 11.1404 117.218 9.52023C117.218 8.19736 117.681 7.06028 118.607 6.109C119.548 5.15772 120.827 4.68208 122.444 4.68208C123.223 4.68208 124.031 4.80099 124.869 5.03881C125.722 5.26177 126.251 5.37325 126.457 5.37325C126.662 5.37325 126.846 5.22461 127.008 4.92733H127.251L127.405 9.43105H127.052C126.346 8.1379 125.604 7.10487 124.825 6.33196C124.061 5.54418 123.223 5.15029 122.311 5.15029C121.415 5.15029 120.716 5.36581 120.217 5.79686C119.717 6.21305 119.467 6.77787 119.467 7.49133C119.467 8.18993 119.761 8.73245 120.349 9.11891C120.952 9.4905 121.687 9.79521 122.554 10.033C123.421 10.2709 123.987 10.4344 124.252 10.5235C124.531 10.6127 124.869 10.7391 125.266 10.9026C125.678 11.0512 126.008 11.2147 126.258 11.3931C126.523 11.5566 126.795 11.7721 127.074 12.0396C127.368 12.2923 127.596 12.5747 127.758 12.8869C128.155 13.6003 128.353 14.4476 128.353 15.4286C128.353 17.0339 127.853 18.327 126.854 19.308C125.869 20.2742 124.568 20.7572 122.951 20.7572C122.113 20.7572 121.15 20.6457 120.062 20.4228C118.989 20.1998 118.394 20.0884 118.276 20.0884C118.07 20.0884 117.872 20.3113 117.681 20.7572H117.372L117.152 15.4509H117.526C118.173 16.744 118.996 17.8737 119.996 18.8398C121.01 19.8059 122.076 20.289 123.193 20.289ZM121.936 27L121.694 26.6656C122.62 25.9521 123.083 25.3353 123.083 24.815C123.083 24.4434 122.951 24.1982 122.686 24.0793L122.003 24.7704C121.282 24.5029 120.922 24.005 120.922 23.2766C120.922 22.7861 121.062 22.4071 121.341 22.1396C121.635 21.872 122.032 21.7382 122.532 21.7382C123.046 21.7382 123.451 21.9166 123.745 22.2733C124.039 22.6449 124.186 23.1429 124.186 23.7671C124.186 25.0306 123.436 26.1082 121.936 27Z" fill="#A7A8AE"/>
<path d="M142.282 4.92733L142.502 10.5235H142.083C141.437 8.54666 140.863 7.20149 140.363 6.48803C139.864 5.7597 139.143 5.39554 138.203 5.39554H137.938V20.0661H139.812V20.5343H131.764V20.0661H133.638V5.39554H133.352C132.411 5.39554 131.683 5.77457 131.169 6.53262C130.654 7.27581 130.088 8.60611 129.471 10.5235H129.052L129.272 4.92733H142.282Z" fill="#A7A8AE"/>
<path d="M143.773 4.92733H155.239L155.459 9.34187H155.062C154.445 7.84063 153.798 6.81503 153.122 6.26507C152.446 5.70025 151.454 5.41784 150.145 5.41784H149.374V12.3072H150.123C150.814 12.3072 151.395 12.0471 151.865 11.5268C152.336 10.9917 152.666 10.2783 152.857 9.38646H153.188V15.986H152.813C152.549 14.8712 152.189 14.076 151.733 13.6003C151.292 13.1247 150.682 12.8869 149.903 12.8869H149.374V20.0438H150.211C151.564 20.0438 152.71 19.635 153.651 18.8175C154.607 18 155.261 16.9521 155.614 15.6738H156.055L155.878 20.5343H143.773V20.0438H145.074V5.41784H143.773V4.92733Z" fill="#A7A8AE"/>
<path d="M169.852 5.12799C167.573 5.12799 166.434 7.35012 166.434 11.7944V13.5557C166.434 15.6664 166.735 17.3237 167.338 18.5277C167.941 19.7168 168.83 20.3113 170.006 20.3113C171.623 20.3113 173.108 18.7209 174.46 15.54H174.857L174.703 20.512H174.46C174.372 20.3485 174.291 20.237 174.218 20.1775C174.144 20.1032 174.034 20.0661 173.887 20.0661C173.755 20.0661 173.225 20.185 172.299 20.4228C171.373 20.6457 170.432 20.7572 169.477 20.7572C167.081 20.7572 165.221 20.1032 163.898 18.7952C162.59 17.4872 161.936 15.5252 161.936 12.9092C161.936 10.2783 162.619 8.24938 163.986 6.82246C165.368 5.39554 167.22 4.68208 169.543 4.68208C170.44 4.68208 171.314 4.80099 172.167 5.03881C173.034 5.26177 173.541 5.37325 173.688 5.37325C173.835 5.37325 173.946 5.34352 174.019 5.28406C174.093 5.20974 174.174 5.09083 174.262 4.92733H174.504L174.681 9.76548H174.284C173.622 8.26424 172.939 7.11974 172.233 6.33196C171.542 5.52931 170.748 5.12799 169.852 5.12799Z" fill="#A7A8AE"/>
<path d="M181.671 15.7853C181.671 17.1528 181.899 18.2007 182.355 18.929C182.825 19.6573 183.663 20.0215 184.869 20.0215C186.074 20.0215 187 19.6424 187.647 18.8844C188.294 18.1263 188.617 16.9744 188.617 15.4286V5.35095H187.184V4.92733H190.403V5.35095H189.191V15.2725C189.191 17.1156 188.786 18.4905 187.978 19.3972C187.169 20.3039 185.736 20.7572 183.678 20.7572C181.635 20.7572 180.069 20.3262 178.981 19.4641C177.908 18.602 177.372 17.123 177.372 15.0273V5.35095H176.159V4.92733H183.105V5.35095H181.671V15.7853Z" fill="#A7A8AE"/>
<path d="M207.719 5.35095V20.5343H204.632L197.069 6.109V20.1107H198.282V20.5343H195.261V20.1107H196.474V5.35095H195.261V4.92733H201.347L207.124 16.1197V5.35095H205.911V4.92733H208.932V5.35095H207.719Z" fill="#A7A8AE"/>
<path d="M220.313 13.6449V11.995C220.313 9.27498 220.181 7.55822 219.917 6.84476C219.623 6.02725 219.204 5.52188 218.66 5.32865C218.351 5.20974 217.976 5.15029 217.535 5.15029C217.094 5.15029 216.712 5.20974 216.389 5.32865C216.08 5.44756 215.823 5.65566 215.617 5.95293C215.411 6.25021 215.242 6.56235 215.11 6.88935C214.992 7.21635 214.896 7.67713 214.823 8.27168C214.735 9.13377 214.691 10.4046 214.691 12.0842V13.6895C214.691 15.5029 214.757 16.796 214.889 17.569C215.036 18.327 215.213 18.8695 215.418 19.1965C215.874 19.9249 216.58 20.289 217.535 20.289C218.696 20.289 219.446 19.7985 219.784 18.8175C220.137 17.8216 220.313 16.0974 220.313 13.6449ZM217.491 20.7572C215.036 20.7572 213.199 20.0884 211.978 18.7506C210.773 17.398 210.17 15.4509 210.17 12.9092C210.17 10.3526 210.817 8.346 212.111 6.88935C213.419 5.41784 215.264 4.68208 217.645 4.68208C220.027 4.68208 221.82 5.38068 223.026 6.77787C224.246 8.1602 224.856 10.1296 224.856 12.6862C224.856 15.2428 224.238 17.2271 223.004 18.6391C221.783 20.0512 219.946 20.7572 217.491 20.7572Z" fill="#A7A8AE"/>
<path d="M226.312 4.92733H233.037V5.35095H231.825V20.1107H233.037V20.5343H226.312V20.1107H227.525V5.35095H226.312V4.92733Z" fill="#A7A8AE"/>
<path d="M234.062 4.92733H242V5.41784H239.663V20.0438H240.457C241.706 20.0438 242.698 19.6573 243.433 18.8844C244.183 18.1115 244.94 16.9224 245.705 15.3171H246.168L245.749 20.5343H234.062V20.0438H235.363V5.41784H234.062V4.92733Z" fill="#A7A8AE"/>
<path d="M247.197 4.92733H258.663L258.884 9.34187H258.487C257.87 7.84063 257.223 6.81503 256.547 6.26507C255.87 5.70025 254.878 5.41784 253.57 5.41784H252.798V12.3072H253.548C254.239 12.3072 254.819 12.0471 255.29 11.5268C255.76 10.9917 256.091 10.2783 256.282 9.38646H256.613V15.986H256.238C255.973 14.8712 255.613 14.076 255.157 13.6003C254.716 13.1247 254.106 12.8869 253.327 12.8869H252.798V20.0438H253.636C254.988 20.0438 256.135 19.635 257.076 18.8175C258.031 18 258.686 16.9521 259.038 15.6738H259.479L259.303 20.5343H247.197V20.0438H248.498V5.41784H247.197V4.92733Z" fill="#A7A8AE"/>
<path d="M264.787 4.92733H271.27C273.489 4.92733 275.143 5.25433 276.231 5.90834C277.319 6.54748 277.863 7.69942 277.863 9.36416C277.863 11.2073 277.201 12.4781 275.878 13.1767C274.643 13.8159 272.916 14.1354 270.696 14.1354H270.52V20.1107H273.276V20.5343H264.787V20.1107H266.22V5.35095H264.787V4.92733ZM270.52 5.35095V13.7118H270.983C271.865 13.7118 272.475 13.4071 272.813 12.7977C273.151 12.1883 273.32 11.1998 273.32 9.83237V8.76218C273.32 7.49876 273.159 6.61437 272.835 6.109C272.527 5.60363 271.953 5.35095 271.115 5.35095H270.52Z" fill="#A7A8AE"/>
<path d="M285.664 12.6416H284.495V20.1107H285.928V20.5343H278.762V20.1107H280.195V5.35095H278.762V4.92733H285.421C287.332 4.92733 288.685 5.03138 289.479 5.23947C290.287 5.4327 290.853 5.67052 291.176 5.95293C291.882 6.53262 292.235 7.45417 292.235 8.71759C292.235 9.98101 291.926 10.8877 291.309 11.4377C290.691 11.9727 289.75 12.2923 288.486 12.3964V12.4633C289.677 12.6268 290.508 12.9835 290.978 13.5334C291.448 14.0834 291.684 15.005 291.684 16.2981V17.4798C291.684 18.2527 291.72 18.7729 291.794 19.0405C291.882 19.308 292.058 19.4418 292.323 19.4418C292.588 19.4418 292.793 19.3229 292.94 19.0851C293.102 18.8324 293.249 18.3121 293.381 17.5244L293.756 17.569C293.595 18.8324 293.308 19.6796 292.896 20.1107C292.499 20.5417 291.698 20.7572 290.493 20.7572C289.287 20.7572 288.427 20.4748 287.913 19.91C287.413 19.3303 287.163 18.2527 287.163 16.6771V15.0495C287.163 14.2172 287.053 13.6078 286.832 13.2213C286.627 12.8348 286.237 12.6416 285.664 12.6416ZM284.495 5.35095V12.218H285.201C286.039 12.218 286.656 11.9579 287.053 11.4377C287.465 10.9174 287.67 10.0702 287.67 8.89595V8.24938C287.67 7.07514 287.472 6.30223 287.075 5.93064C286.693 5.54418 286.075 5.35095 285.223 5.35095H284.495Z" fill="#A7A8AE"/>
<path d="M294.767 4.92733H301.492V5.35095H300.279V20.1107H301.492V20.5343H294.767V20.1107H295.979V5.35095H294.767V4.92733Z" fill="#A7A8AE"/>
<path d="M311.535 16.4988L315.372 5.35095H313.652V4.92733H317.026V5.35095H315.989L310.675 20.7572H308.823L303.2 5.35095H302.186V4.92733H309.396V5.35095H307.831L311.535 16.4988Z" fill="#A7A8AE"/>
<path d="M317.7 4.92733H324.425V5.35095H323.212V20.1107H324.425V20.5343H317.7V20.1107H318.912V5.35095H317.7V4.92733Z" fill="#A7A8AE"/>
<path d="M325.449 4.92733H333.388V5.41784H331.05V20.0438H331.844C333.094 20.0438 334.086 19.6573 334.821 18.8844C335.571 18.1115 336.328 16.9224 337.092 15.3171H337.555L337.136 20.5343H325.449V20.0438H326.75V5.41784H325.449V4.92733Z" fill="#A7A8AE"/>
<path d="M338.585 4.92733H350.051L350.271 9.34187H349.875C349.257 7.84063 348.61 6.81503 347.934 6.26507C347.258 5.70025 346.266 5.41784 344.957 5.41784H344.186V12.3072H344.935C345.626 12.3072 346.207 12.0471 346.677 11.5268C347.148 10.9917 347.478 10.2783 347.67 9.38646H348V15.986H347.625C347.361 14.8712 347.001 14.076 346.545 13.6003C346.104 13.1247 345.494 12.8869 344.715 12.8869H344.186V20.0438H345.023C346.376 20.0438 347.522 19.635 348.463 18.8175C349.419 18 350.073 16.9521 350.426 15.6738H350.867L350.69 20.5343H338.585V20.0438H339.886V5.41784H338.585V4.92733Z" fill="#A7A8AE"/>
<path d="M359.921 20.3113C360.642 20.3113 361.097 20.1775 361.288 19.91C361.494 19.6424 361.597 19.1891 361.597 18.55V14.2246H360.186V13.7341H366.536V14.2246H365.676V20.512H365.346C365.081 20.1404 364.706 19.9546 364.221 19.9546C364.015 19.9546 363.398 20.0884 362.369 20.3559C361.355 20.6235 360.487 20.7572 359.767 20.7572C357.371 20.7572 355.511 20.1032 354.188 18.7952C352.88 17.4872 352.226 15.5252 352.226 12.9092C352.226 10.2783 352.909 8.24938 354.276 6.82246C355.658 5.39554 357.51 4.68208 359.833 4.68208C360.73 4.68208 361.627 4.80099 362.523 5.03881C363.435 5.26177 363.964 5.37325 364.111 5.37325C364.258 5.37325 364.368 5.34352 364.442 5.28406C364.515 5.20974 364.596 5.09083 364.684 4.92733H364.927L365.103 9.76548H364.706C363.986 8.3237 363.258 7.19405 362.523 6.37655C361.803 5.54418 360.994 5.12799 360.098 5.12799C357.849 5.12799 356.724 7.35012 356.724 11.7944V13.5557C356.724 15.7853 356.996 17.4723 357.54 18.6168C358.098 19.7465 358.892 20.3113 359.921 20.3113Z" fill="#A7A8AE"/>
<path d="M367.808 4.92733H374.533V5.35095H373.32V20.1107H374.533V20.5343H367.808V20.1107H369.02V5.35095H367.808V4.92733Z" fill="#A7A8AE"/>
<path d="M375.646 4.92733H382.371V5.35095H381.158V20.1107H382.371V20.5343H375.646V20.1107H376.859V5.35095H375.646V4.92733Z" fill="#A7A8AE"/>
</svg>
