<svg width="21" height="20" viewBox="0 0 21 20" fill="none" xmlns="http://www.w3.org/2000/svg">
<path d="M10.3711 0C13.0881 0 13.4271 0.00999994 14.4931 0.0599999C15.5581 0.11 16.2831 0.277 16.9211 0.525C17.5811 0.779 18.1371 1.123 18.6931 1.678C19.2016 2.1779 19.595 2.78259 19.8461 3.45C20.0931 4.087 20.2611 4.813 20.3111 5.878C20.3581 6.944 20.3711 7.283 20.3711 10C20.3711 12.717 20.3611 13.056 20.3111 14.122C20.2611 15.187 20.0931 15.912 19.8461 16.55C19.5958 17.2178 19.2022 17.8226 18.6931 18.322C18.1931 18.8303 17.5884 19.2238 16.9211 19.475C16.2841 19.722 15.5581 19.89 14.4931 19.94C13.4271 19.987 13.0881 20 10.3711 20C7.65409 20 7.31509 19.99 6.24909 19.94C5.18409 19.89 4.45909 19.722 3.82109 19.475C3.15342 19.2245 2.54862 18.8309 2.04909 18.322C1.5405 17.8222 1.14703 17.2175 0.896094 16.55C0.648094 15.913 0.481094 15.187 0.431094 14.122C0.384094 13.056 0.371094 12.717 0.371094 10C0.371094 7.283 0.381094 6.944 0.431094 5.878C0.481094 4.812 0.648094 4.088 0.896094 3.45C1.14633 2.78218 1.5399 2.17732 2.04909 1.678C2.54876 1.16923 3.15352 0.775729 3.82109 0.525C4.45909 0.277 5.18309 0.11 6.24909 0.0599999C7.31509 0.0129999 7.65409 0 10.3711 0ZM10.3711 5C9.04501 5 7.77324 5.52678 6.83556 6.46447C5.89788 7.40215 5.37109 8.67392 5.37109 10C5.37109 11.3261 5.89788 12.5979 6.83556 13.5355C7.77324 14.4732 9.04501 15 10.3711 15C11.6972 15 12.9689 14.4732 13.9066 13.5355C14.8443 12.5979 15.3711 11.3261 15.3711 10C15.3711 8.67392 14.8443 7.40215 13.9066 6.46447C12.9689 5.52678 11.6972 5 10.3711 5ZM16.8711 4.75C16.8711 4.41848 16.7394 4.10054 16.505 3.86612C16.2706 3.6317 15.9526 3.5 15.6211 3.5C15.2896 3.5 14.9716 3.6317 14.7372 3.86612C14.5028 4.10054 14.3711 4.41848 14.3711 4.75C14.3711 5.08152 14.5028 5.39946 14.7372 5.63388C14.9716 5.8683 15.2896 6 15.6211 6C15.9526 6 16.2706 5.8683 16.505 5.63388C16.7394 5.39946 16.8711 5.08152 16.8711 4.75ZM10.3711 7C11.1667 7 11.9298 7.31607 12.4924 7.87868C13.055 8.44129 13.3711 9.20435 13.3711 10C13.3711 10.7956 13.055 11.5587 12.4924 12.1213C11.9298 12.6839 11.1667 13 10.3711 13C9.57544 13 8.81238 12.6839 8.24977 12.1213C7.68716 11.5587 7.37109 10.7956 7.37109 10C7.37109 9.20435 7.68716 8.44129 8.24977 7.87868C8.81238 7.31607 9.57544 7 10.3711 7Z" fill="#001242"/>
</svg>
