<svg width="25" height="24" viewBox="0 0 25 24" fill="none" xmlns="http://www.w3.org/2000/svg">
<path fill-rule="evenodd" clip-rule="evenodd" d="M24.3711 12C24.3711 18.627 18.9981 24 12.3711 24C5.74409 24 0.371094 18.627 0.371094 12C0.371094 5.373 5.74409 0 12.3711 0C18.9981 0 24.3711 5.373 24.3711 12ZM12.8011 8.859C11.6341 9.344 9.30109 10.349 5.80309 11.873C5.23509 12.099 4.93709 12.32 4.91009 12.536C4.86409 12.902 5.32209 13.046 5.94409 13.241C6.02909 13.268 6.11709 13.295 6.20709 13.325C6.82009 13.524 7.64409 13.757 8.07209 13.766C8.46109 13.774 8.89509 13.614 9.37409 13.286C12.6421 11.079 14.3291 9.964 14.4351 9.94C14.5101 9.923 14.6141 9.901 14.6841 9.964C14.7541 10.026 14.7471 10.144 14.7401 10.176C14.6941 10.369 12.9001 12.038 11.9701 12.902C11.6801 13.171 11.4751 13.362 11.4331 13.406C11.3391 13.503 11.2431 13.596 11.1511 13.685C10.5811 14.233 10.1551 14.645 11.1751 15.317C11.6651 15.64 12.0571 15.907 12.4481 16.173C12.8751 16.464 13.3011 16.754 13.8531 17.116C13.9931 17.208 14.1271 17.303 14.2581 17.396C14.7551 17.751 15.2021 18.069 15.7541 18.019C16.0741 17.989 16.4061 17.688 16.5741 16.789C16.9711 14.663 17.7531 10.059 17.9341 8.161C17.9451 8.00341 17.9384 7.84509 17.9141 7.689C17.8995 7.56293 17.8382 7.44693 17.7421 7.364C17.5991 7.247 17.3771 7.222 17.2771 7.224C16.8261 7.232 16.1341 7.473 12.8011 8.859Z" fill="#001242"/>
</svg>
