<svg width="290" height="25" viewBox="0 0 290 25" fill="none" xmlns="http://www.w3.org/2000/svg">
<path d="M12.0658 14.0163L16.8651 1.27421H14.7137V0.790009H18.9337V1.27421H17.6374L10.9901 18.8838H8.67326L1.63986 1.27421H0.371094V0.790009H9.39039V1.27421H7.43207L12.0658 14.0163Z" fill="#001242"/>
<path d="M26.9325 7.21203C26.2522 7.21203 25.6545 7.61977 25.1397 8.43527C24.6248 9.25076 24.3674 10.2192 24.3674 11.3405V18.1702H26.3257V18.629H17.7201V18.1702H19.2371V6.95719H17.7201V6.49847H24.3674V8.94495C24.6064 8.07849 25.0661 7.4159 25.7465 6.95719C26.4268 6.48148 27.1991 6.24363 28.0634 6.24363C28.9276 6.24363 29.6263 6.47299 30.1596 6.9317C30.7112 7.37343 30.9871 8.01053 30.9871 8.84302C30.9871 9.65851 30.7848 10.2871 30.3803 10.7288C29.9757 11.1706 29.3505 11.3914 28.5047 11.3914C27.6772 11.3914 27.0612 11.1366 26.6567 10.6269C26.2705 10.1172 26.2246 9.41216 26.5188 8.51172H27.5117C27.9714 7.64526 27.7784 7.21203 26.9325 7.21203Z" fill="#001242"/>
<path d="M38.4958 18.8838C36.1238 18.8838 34.3401 18.3231 33.1449 17.2018C31.9681 16.0635 31.3797 14.492 31.3797 12.4873C31.3797 10.4655 32.0416 8.91947 33.3656 7.84913C34.7079 6.7788 36.4088 6.24363 38.4682 6.24363C42.6423 6.24363 44.6466 8.18043 44.4811 12.054H36.703V13.0479C36.703 14.7129 36.9328 15.9701 37.3925 16.8196C37.8522 17.669 38.6521 18.0938 39.7922 18.0938C41.9252 18.0938 43.3227 17.0404 43.9846 14.9337L44.4811 15.0102C44.1317 16.2334 43.4973 17.1848 42.5779 17.8644C41.6769 18.544 40.3162 18.8838 38.4958 18.8838ZM36.7306 11.5443H39.5715V10.2956C39.5715 8.91947 39.4796 7.98505 39.2957 7.49235C39.1302 6.98267 38.7808 6.72783 38.2476 6.72783C37.7327 6.72783 37.3466 6.99966 37.0891 7.54332C36.8501 8.07 36.7306 8.98743 36.7306 10.2956V11.5443Z" fill="#001242"/>
<path d="M52.0834 12.6402H52.8832V10.6779C52.8832 9.06388 52.7821 7.98505 52.5798 7.44139C52.396 6.88073 52.0282 6.60041 51.4766 6.60041C51.1456 6.60041 50.8422 6.68535 50.5664 6.85525C50.3089 7.00815 50.1802 7.22902 50.1802 7.51784C50.1802 7.78967 50.2354 8.07 50.3457 8.35882H51.0353C51.1824 8.7156 51.2559 9.14883 51.2559 9.65851C51.2559 10.1512 51.0261 10.5844 50.5664 10.9582C50.1067 11.315 49.5274 11.4934 48.8287 11.4934C47.2473 11.4934 46.4567 10.7883 46.4567 9.37819C46.4567 7.28848 48.3782 6.24363 52.2213 6.24363C54.4094 6.24363 55.9173 6.59191 56.7447 7.28848C57.5906 7.96806 58.0135 9.22528 58.0135 11.0601V16.2334C58.0135 17.1169 58.2801 17.5586 58.8134 17.5586C59.4386 17.5586 59.8063 16.6837 59.9166 14.9337L60.3304 14.9592C60.2568 16.4543 59.9534 17.4822 59.4202 18.0428C58.8869 18.6035 58.0135 18.8838 56.7999 18.8838C54.5933 18.8838 53.3246 18.2552 52.9936 16.998C52.7545 17.6436 52.396 18.1193 51.9179 18.4251C51.4398 18.7309 50.7411 18.8838 49.8217 18.8838C47.1002 18.8838 45.7395 17.8559 45.7395 15.8002C45.7395 14.594 46.2544 13.77 47.2841 13.3282C48.3322 12.8695 49.932 12.6402 52.0834 12.6402ZM50.9801 15.7747C50.9801 16.6582 51.0261 17.2273 51.118 17.4822C51.2283 17.737 51.4214 17.8644 51.6972 17.8644C51.9914 17.8644 52.2581 17.6521 52.4971 17.2273C52.7545 16.7856 52.8832 16.1825 52.8832 15.4179V13.0479H52.6902C51.5501 13.0479 50.9801 13.8209 50.9801 15.367V15.7747Z" fill="#001242"/>
<path d="M76.4675 18.629H70.1789L69.8755 16.7686C69.5813 17.4482 69.1399 17.9749 68.5515 18.3486C67.9815 18.7054 67.1264 18.8838 65.9864 18.8838C63.1363 18.8838 61.7112 17.4652 61.7112 14.6279V6.95719H60.1666V6.49847H66.8414V15.2396C66.8414 16.2589 66.915 16.93 67.0621 17.2528C67.2276 17.5756 67.5402 17.737 67.9999 17.737C68.478 17.737 68.9009 17.4737 69.2686 16.947C69.6364 16.4203 69.8203 15.6898 69.8203 14.7554V6.95719H68.5515V6.49847H74.9505V18.1702H76.4675V18.629Z" fill="#001242"/>
<path d="M82.6226 18.8838V14.3221H82.9536C83.4317 15.8002 84.0753 16.8366 84.8843 17.4312C85.6934 18.0258 86.7048 18.3231 87.9184 18.3231C89.7939 18.3231 90.7317 17.771 90.7317 16.6667C90.7317 16.191 90.5019 15.8342 90.0422 15.5963C89.325 15.2226 88.4056 14.9337 87.284 14.7299C86.0336 14.4241 84.9855 14.0163 84.1396 13.5066C83.1283 12.895 82.6226 11.9266 82.6226 10.6014C82.6226 9.27625 83.0639 8.2229 83.9465 7.44139C84.8292 6.64288 86.006 6.24363 87.477 6.24363C88.3781 6.24363 89.3066 6.43901 90.2628 6.82976C90.6122 6.96568 90.8788 7.03364 91.0627 7.03364C91.2466 7.03364 91.4029 6.97418 91.5316 6.85525C91.6603 6.73632 91.8166 6.51546 92.0005 6.19266H92.3039V10.0917H91.9729C91.0351 7.88311 89.5825 6.7788 87.6149 6.7788C86.7507 6.7788 86.1071 6.92321 85.6842 7.21203C85.2613 7.48386 85.0498 7.83214 85.0498 8.25688C85.0498 8.51172 85.1142 8.7156 85.2429 8.8685C85.3716 9.00442 85.4728 9.10635 85.5463 9.17431C85.6199 9.24227 85.7394 9.31872 85.9049 9.40367C86.0704 9.47163 86.2083 9.53109 86.3186 9.58206C86.4289 9.61604 86.5944 9.66701 86.8151 9.73497C87.0541 9.80292 87.2288 9.8454 87.3391 9.86239C88.5895 10.1512 89.4905 10.406 90.0422 10.6269C90.5938 10.8308 91.1179 11.0856 91.6143 11.3914C92.6257 12.037 93.1313 13.0819 93.1313 14.526C93.1313 15.9531 92.6716 17.0404 91.7522 17.788C90.8328 18.5185 89.5733 18.8838 87.9735 18.8838C86.8335 18.8838 85.7302 18.6374 84.6637 18.1448C84.443 18.0088 84.2683 17.9409 84.1396 17.9409C83.7351 17.9409 83.3398 18.2552 82.9536 18.8838H82.6226Z" fill="#001242"/>
<path d="M100.567 12.6402H101.367V10.6779C101.367 9.06388 101.266 7.98505 101.064 7.44139C100.88 6.88073 100.512 6.60041 99.9605 6.60041C99.6295 6.60041 99.3261 6.68535 99.0503 6.85525C98.7928 7.00815 98.6641 7.22902 98.6641 7.51784C98.6641 7.78967 98.7193 8.07 98.8296 8.35882H99.5191C99.6663 8.7156 99.7398 9.14883 99.7398 9.65851C99.7398 10.1512 99.51 10.5844 99.0503 10.9582C98.5906 11.315 98.0113 11.4934 97.3126 11.4934C95.7312 11.4934 94.9406 10.7883 94.9406 9.37819C94.9406 7.28848 96.8621 6.24363 100.705 6.24363C102.893 6.24363 104.401 6.59191 105.229 7.28848C106.074 7.96806 106.497 9.22528 106.497 11.0601V16.2334C106.497 17.1169 106.764 17.5586 107.297 17.5586C107.922 17.5586 108.29 16.6837 108.401 14.9337L108.814 14.9592C108.741 16.4543 108.437 17.4822 107.904 18.0428C107.371 18.6035 106.497 18.8838 105.284 18.8838C103.077 18.8838 101.808 18.2552 101.477 16.998C101.238 17.6436 100.88 18.1193 100.402 18.4251C99.9237 18.7309 99.2249 18.8838 98.3055 18.8838C95.5841 18.8838 94.2234 17.8559 94.2234 15.8002C94.2234 14.594 94.7383 13.77 95.768 13.3282C96.8161 12.8695 98.4159 12.6402 100.567 12.6402ZM99.464 15.7747C99.464 16.6582 99.5099 17.2273 99.6019 17.4822C99.7122 17.737 99.9053 17.8644 100.181 17.8644C100.475 17.8644 100.742 17.6521 100.981 17.2273C101.238 16.7856 101.367 16.1825 101.367 15.4179V13.0479H101.174C100.034 13.0479 99.464 13.8209 99.464 15.367V15.7747ZM96.8437 0.254842L97.285 0.178389C97.5424 0.857968 97.9286 1.31668 98.4435 1.55454C98.9767 1.79239 99.7674 1.91132 100.815 1.91132C101.882 1.91132 102.663 1.80088 103.16 1.58002C103.675 1.35916 104.043 0.891946 104.263 0.178389L104.677 0.254842C104.346 3.31295 103.04 4.842 100.76 4.842C99.3629 4.842 98.3975 4.39178 97.8642 3.49133C97.3861 2.70982 97.046 1.63099 96.8437 0.254842Z" fill="#001242"/>
<path d="M114.041 6.49847H120.689V8.84302C121.296 7.11009 122.629 6.24363 124.688 6.24363C126.766 6.24363 128.026 7.16106 128.467 8.99592C129.11 7.16106 130.462 6.24363 132.521 6.24363C135.224 6.24363 136.576 7.66225 136.576 10.4995V18.1702H138.121V18.629H130.48V18.1702H131.446V9.88787C131.446 8.59667 131.326 7.84064 131.087 7.61978C130.977 7.51784 130.83 7.46687 130.646 7.46687C130.113 7.46687 129.644 7.79816 129.239 8.46075C128.835 9.12334 128.632 9.96432 128.632 10.9837V18.1702H129.625V18.629H122.537V18.1702H123.502V9.88787C123.502 8.59667 123.383 7.84064 123.144 7.61978C123.033 7.51784 122.886 7.46687 122.702 7.46687C122.187 7.46687 121.718 7.83214 121.296 8.56269C120.891 9.27625 120.689 10.1342 120.689 11.1366V18.1702H121.682V18.629H114.041V18.1702H115.558V6.95719H114.041V6.49847Z" fill="#001242"/>
<path d="M145.146 12.6402H145.945V10.6779C145.945 9.06388 145.844 7.98505 145.642 7.44139C145.458 6.88073 145.09 6.60041 144.539 6.60041C144.208 6.60041 143.904 6.68535 143.629 6.85525C143.371 7.00815 143.242 7.22902 143.242 7.51784C143.242 7.78967 143.298 8.07 143.408 8.35882H144.097C144.245 8.7156 144.318 9.14883 144.318 9.65851C144.318 10.1512 144.088 10.5844 143.629 10.9582C143.169 11.315 142.59 11.4934 141.891 11.4934C140.309 11.4934 139.519 10.7883 139.519 9.37819C139.519 7.28848 141.44 6.24363 145.283 6.24363C147.472 6.24363 148.979 6.59191 149.807 7.28848C150.653 7.96806 151.076 9.22528 151.076 11.0601V16.2334C151.076 17.1169 151.342 17.5586 151.876 17.5586C152.501 17.5586 152.868 16.6837 152.979 14.9337L153.393 14.9592C153.319 16.4543 153.016 17.4822 152.482 18.0428C151.949 18.6035 151.076 18.8838 149.862 18.8838C147.655 18.8838 146.387 18.2552 146.056 16.998C145.817 17.6436 145.458 18.1193 144.98 18.4251C144.502 18.7309 143.803 18.8838 142.884 18.8838C140.162 18.8838 138.802 17.8559 138.802 15.8002C138.802 14.594 139.317 13.77 140.346 13.3282C141.394 12.8695 142.994 12.6402 145.146 12.6402ZM144.042 15.7747C144.042 16.6582 144.088 17.2273 144.18 17.4822C144.29 17.737 144.484 17.8644 144.759 17.8644C145.054 17.8644 145.32 17.6521 145.559 17.2273C145.817 16.7856 145.945 16.1825 145.945 15.4179V13.0479H145.752C144.612 13.0479 144.042 13.8209 144.042 15.367V15.7747ZM141.422 0.254842L141.863 0.178389C142.121 0.857968 142.507 1.31668 143.022 1.55454C143.555 1.79239 144.346 1.91132 145.394 1.91132C146.46 1.91132 147.242 1.80088 147.738 1.58002C148.253 1.35916 148.621 0.891946 148.841 0.178389L149.255 0.254842C148.924 3.31295 147.619 4.842 145.339 4.842C143.941 4.842 142.976 4.39178 142.442 3.49133C141.964 2.70982 141.624 1.63099 141.422 0.254842Z" fill="#001242"/>
<path d="M165.239 12.6402H166.039V10.6779C166.039 9.06388 165.938 7.98505 165.736 7.44139C165.552 6.88073 165.184 6.60041 164.633 6.60041C164.302 6.60041 163.998 6.68535 163.722 6.85525C163.465 7.00815 163.336 7.22902 163.336 7.51784C163.336 7.78967 163.391 8.07 163.502 8.35882H164.191C164.338 8.7156 164.412 9.14883 164.412 9.65851C164.412 10.1512 164.182 10.5844 163.722 10.9582C163.263 11.315 162.683 11.4934 161.985 11.4934C160.403 11.4934 159.613 10.7883 159.613 9.37819C159.613 7.28848 161.534 6.24363 165.377 6.24363C167.565 6.24363 169.073 6.59191 169.901 7.28848C170.747 7.96806 171.17 9.22528 171.17 11.0601V16.2334C171.17 17.1169 171.436 17.5586 171.969 17.5586C172.595 17.5586 172.962 16.6837 173.073 14.9337L173.486 14.9592C173.413 16.4543 173.109 17.4822 172.576 18.0428C172.043 18.6035 171.169 18.8838 169.956 18.8838C167.749 18.8838 166.481 18.2552 166.15 16.998C165.911 17.6436 165.552 18.1193 165.074 18.4251C164.596 18.7309 163.897 18.8838 162.978 18.8838C160.256 18.8838 158.896 17.8559 158.896 15.8002C158.896 14.594 159.41 13.77 160.44 13.3282C161.488 12.8695 163.088 12.6402 165.239 12.6402ZM164.136 15.7747C164.136 16.6582 164.182 17.2273 164.274 17.4822C164.384 17.737 164.577 17.8644 164.853 17.8644C165.147 17.8644 165.414 17.6521 165.653 17.2273C165.911 16.7856 166.039 16.1825 166.039 15.4179V13.0479H165.846C164.706 13.0479 164.136 13.8209 164.136 15.367V15.7747Z" fill="#001242"/>
<path d="M173.813 6.49847H180.46V8.84302C180.754 8.0615 181.205 7.43289 181.811 6.95719C182.418 6.48148 183.338 6.24363 184.57 6.24363C187.42 6.24363 188.845 7.66225 188.845 10.4995V18.1702H190.389V18.629H182.584V18.1702H183.715V9.88787C183.715 8.8685 183.641 8.21441 183.494 7.92559C183.347 7.61978 183.08 7.46687 182.694 7.46687C182.106 7.46687 181.582 7.82365 181.122 8.53721C180.681 9.25076 180.46 10.1172 180.46 11.1366V18.1702H181.646V18.629H173.813V18.1702H175.33V6.95719H173.813V6.49847Z" fill="#001242"/>
<path d="M201.814 5.17329L202.586 4.74006C202.697 4.21339 202.476 3.95005 201.924 3.95005C201.134 3.95005 200.738 4.5107 200.738 5.63201C200.738 6.07373 200.803 6.58342 200.932 7.16106C202.329 8.02752 203.028 9.14033 203.028 10.4995C203.028 11.8417 202.522 12.8865 201.511 13.634C200.499 14.3816 199.129 14.7554 197.401 14.7554C196.684 14.7554 195.939 14.6874 195.167 14.5515C194.358 15.0272 193.953 15.384 193.953 15.6218C193.953 15.8597 194.542 15.9786 195.719 15.9786H198.532C202.706 15.9786 204.793 17.3632 204.793 20.1325C204.793 21.6276 204.159 22.8084 202.89 23.6748C201.639 24.5583 199.681 25 197.015 25C192.473 25 190.202 24.0911 190.202 22.2732C190.202 21.2878 190.91 20.6082 192.326 20.2345L193.981 20.9225C193.834 21.4152 193.76 21.8824 193.76 22.3242C193.76 23.7853 194.937 24.5158 197.291 24.5158C198.725 24.5158 199.828 24.2695 200.601 23.7768C201.373 23.2841 201.759 22.6724 201.759 21.9419C201.759 21.2113 201.52 20.7187 201.042 20.4638C200.582 20.226 199.654 20.107 198.256 20.107H195.581C194.091 20.107 193.025 19.8777 192.381 19.419C191.738 18.9602 191.416 18.3996 191.416 17.737C191.416 17.0574 191.646 16.4968 192.105 16.055C192.565 15.5963 193.383 15.0357 194.56 14.3731C192.427 13.8124 191.361 12.5212 191.361 10.4995C191.361 9.22528 191.857 8.19742 192.85 7.4159C193.843 6.63439 195.332 6.24363 197.318 6.24363C198.514 6.24363 199.534 6.456 200.38 6.88073C200.27 6.42202 200.214 6.00578 200.214 5.63201C200.214 4.6806 200.49 3.99252 201.042 3.56779C201.593 3.14305 202.209 2.93068 202.89 2.93068C203.57 2.93068 204.113 3.10058 204.517 3.44037C204.94 3.76317 205.152 4.21339 205.152 4.79103C205.152 5.36867 204.986 5.8019 204.655 6.09072C204.324 6.36255 203.92 6.49847 203.441 6.49847C202.982 6.49847 202.596 6.38804 202.283 6.16718C201.989 5.92932 201.833 5.59803 201.814 5.17329ZM195.967 9.93884V11.315C195.967 12.4533 196.068 13.2263 196.27 13.634C196.491 14.0418 196.813 14.2457 197.236 14.2457C197.677 14.2457 197.989 14.0503 198.173 13.6595C198.376 13.2518 198.477 12.4278 198.477 11.1876V9.93884C198.477 8.61366 198.385 7.7472 198.201 7.33945C198.017 6.91471 197.704 6.70234 197.263 6.70234C196.84 6.70234 196.518 6.92321 196.298 7.36493C196.077 7.78967 195.967 8.64764 195.967 9.93884Z" fill="#001242"/>
<path d="M211.084 12.6402H211.883V10.6779C211.883 9.06388 211.782 7.98505 211.58 7.44139C211.396 6.88073 211.028 6.60041 210.477 6.60041C210.146 6.60041 209.842 6.68535 209.567 6.85525C209.309 7.00815 209.18 7.22902 209.18 7.51784C209.18 7.78967 209.236 8.07 209.346 8.35882H210.035C210.183 8.7156 210.256 9.14883 210.256 9.65851C210.256 10.1512 210.026 10.5844 209.567 10.9582C209.107 11.315 208.528 11.4934 207.829 11.4934C206.248 11.4934 205.457 10.7883 205.457 9.37819C205.457 7.28848 207.378 6.24363 211.222 6.24363C213.41 6.24363 214.917 6.59191 215.745 7.28848C216.591 7.96806 217.014 9.22528 217.014 11.0601V16.2334C217.014 17.1169 217.28 17.5586 217.814 17.5586C218.439 17.5586 218.807 16.6837 218.917 14.9337L219.331 14.9592C219.257 16.4543 218.954 17.4822 218.42 18.0428C217.887 18.6035 217.014 18.8838 215.8 18.8838C213.594 18.8838 212.325 18.2552 211.994 16.998C211.755 17.6436 211.396 18.1193 210.918 18.4251C210.44 18.7309 209.741 18.8838 208.822 18.8838C206.1 18.8838 204.74 17.8559 204.74 15.8002C204.74 14.594 205.255 13.77 206.284 13.3282C207.332 12.8695 208.932 12.6402 211.084 12.6402ZM209.98 15.7747C209.98 16.6582 210.026 17.2273 210.118 17.4822C210.229 17.737 210.422 17.8644 210.697 17.8644C210.992 17.8644 211.258 17.6521 211.497 17.2273C211.755 16.7856 211.883 16.1825 211.883 15.4179V13.0479H211.69C210.55 13.0479 209.98 13.8209 209.98 15.367V15.7747Z" fill="#001242"/>
<path d="M226.249 6.49847V16.4373C226.249 19.2236 225.725 21.3473 224.677 22.8084C223.647 24.2695 221.955 25 219.602 25C218.075 25 216.963 24.7197 216.264 24.159C215.547 23.5984 215.189 22.9443 215.189 22.1967C215.189 21.4492 215.428 20.8716 215.906 20.4638C216.384 20.0731 216.981 19.8777 217.699 19.8777C218.416 19.8777 218.958 20.0561 219.326 20.4128C219.675 20.7866 219.85 21.1944 219.85 21.6361C219.85 22.0778 219.795 22.5025 219.684 22.9103H218.636C218.342 23.369 218.305 23.7598 218.526 24.0826C218.728 24.4054 219.105 24.5668 219.657 24.5668C220.227 24.5668 220.613 24.2695 220.815 23.6748C221.018 23.0972 221.119 21.8909 221.119 20.0561V6.95719H219.326V6.49847H226.249ZM223.629 4.74006C222.654 4.74006 221.955 4.5107 221.532 4.05199C221.128 3.59327 220.926 3.02412 220.926 2.34454C220.926 1.66497 221.146 1.10431 221.588 0.662588C222.047 0.220863 222.737 0 223.656 0C224.576 0 225.274 0.203874 225.752 0.611621C226.231 1.00238 226.47 1.57153 226.47 2.31906C226.47 3.04961 226.24 3.63575 225.78 4.07747C225.32 4.5192 224.603 4.74006 223.629 4.74006Z" fill="#001242"/>
<path d="M235.421 18.8838C233.049 18.8838 231.266 18.3231 230.07 17.2018C228.894 16.0635 228.305 14.492 228.305 12.4873C228.305 10.4655 228.967 8.91947 230.291 7.84913C231.633 6.7788 233.334 6.24363 235.394 6.24363C239.568 6.24363 241.572 8.18043 241.407 12.054H233.628V13.0479C233.628 14.7129 233.858 15.9701 234.318 16.8196C234.778 17.669 235.578 18.0938 236.718 18.0938C238.851 18.0938 240.248 17.0404 240.91 14.9337L241.407 15.0102C241.057 16.2334 240.423 17.1848 239.503 17.8644C238.602 18.544 237.242 18.8838 235.421 18.8838ZM233.656 11.5443H236.497V10.2956C236.497 8.91947 236.405 7.98505 236.221 7.49235C236.056 6.98267 235.706 6.72783 235.173 6.72783C234.658 6.72783 234.272 6.99966 234.015 7.54332C233.775 8.07 233.656 8.98743 233.656 10.2956V11.5443Z" fill="#001242"/>
<path d="M254.945 6.49847V6.95719L248.408 18.1702H248.767C250.312 18.1702 251.525 17.7965 252.408 17.0489C253.29 16.3014 253.98 15.0866 254.476 13.4047H254.863L254.421 18.629H242.837V18.2467L249.484 6.95719H249.181C247.324 6.95719 246.027 7.23751 245.292 7.79817C244.575 8.35882 243.931 9.55657 243.361 11.3914H243.002L243.361 6.49847H254.945Z" fill="#001242"/>
<path d="M266.039 14.0928V11.9011C266.039 10.44 265.736 8.7071 265.129 6.70234C264.541 4.6806 264.247 3.30445 264.247 2.5739C264.247 1.84336 264.458 1.31668 264.881 0.993883C265.322 0.671083 265.855 0.509683 266.481 0.509683C267.878 0.509683 268.577 1.19776 268.577 2.5739C268.577 3.37241 268.255 4.76555 267.612 6.75331C266.968 8.74108 266.646 10.4655 266.646 11.9266V14.0928H266.039ZM266.232 18.8838C265.552 18.8838 265.037 18.7054 264.688 18.3486C264.357 17.9749 264.191 17.5161 264.191 16.9725C264.191 16.4118 264.375 15.9531 264.743 15.5963C265.111 15.2226 265.616 15.0357 266.26 15.0357C266.904 15.0357 267.418 15.1971 267.805 15.5199C268.191 15.8257 268.384 16.2844 268.384 16.896C268.384 17.5076 268.2 17.9918 267.832 18.3486C267.464 18.7054 266.931 18.8838 266.232 18.8838Z" fill="#001242"/>
<path d="M276.436 14.0928V11.9011C276.436 10.44 276.133 8.7071 275.526 6.70234C274.938 4.6806 274.644 3.30445 274.644 2.5739C274.644 1.84336 274.855 1.31668 275.278 0.993883C275.719 0.671083 276.253 0.509683 276.878 0.509683C278.275 0.509683 278.974 1.19776 278.974 2.5739C278.974 3.37241 278.652 4.76555 278.009 6.75331C277.365 8.74108 277.043 10.4655 277.043 11.9266V14.0928H276.436ZM276.63 18.8838C275.949 18.8838 275.434 18.7054 275.085 18.3486C274.754 17.9749 274.588 17.5161 274.588 16.9725C274.588 16.4118 274.772 15.9531 275.14 15.5963C275.508 15.2226 276.014 15.0357 276.657 15.0357C277.301 15.0357 277.816 15.1971 278.202 15.5199C278.588 15.8257 278.781 16.2844 278.781 16.896C278.781 17.5076 278.597 17.9918 278.229 18.3486C277.862 18.7054 277.328 18.8838 276.63 18.8838Z" fill="#001242"/>
<path d="M286.834 14.0928V11.9011C286.834 10.44 286.53 8.7071 285.923 6.70234C285.335 4.6806 285.041 3.30445 285.041 2.5739C285.041 1.84336 285.252 1.31668 285.675 0.993883C286.116 0.671083 286.65 0.509683 287.275 0.509683C288.672 0.509683 289.371 1.19776 289.371 2.5739C289.371 3.37241 289.049 4.76555 288.406 6.75331C287.762 8.74108 287.44 10.4655 287.44 11.9266V14.0928H286.834ZM287.027 18.8838C286.346 18.8838 285.831 18.7054 285.482 18.3486C285.151 17.9749 284.986 17.5161 284.986 16.9725C284.986 16.4118 285.169 15.9531 285.537 15.5963C285.905 15.2226 286.411 15.0357 287.054 15.0357C287.698 15.0357 288.213 15.1971 288.599 15.5199C288.985 15.8257 289.178 16.2844 289.178 16.896C289.178 17.5076 288.994 17.9918 288.626 18.3486C288.259 18.7054 287.725 18.8838 287.027 18.8838Z" fill="#001242"/>
</svg>
