<svg width="24" height="24" viewBox="0 0 24 24" fill="none" xmlns="http://www.w3.org/2000/svg">
<path d="M12.3716 0.47998C6.00916 0.47998 0.851562 5.63758 0.851562 12C0.851562 18.3624 6.00916 23.52 12.3716 23.52C18.734 23.52 23.8916 18.3624 23.8916 12C23.8916 5.63758 18.734 0.47998 12.3716 0.47998ZM16.802 13.4772C16.802 13.4772 17.8208 14.4828 18.0716 14.9496C18.0788 14.9592 18.0824 14.9688 18.0848 14.9736C18.1868 15.1452 18.2108 15.2784 18.1604 15.378C18.0764 15.5436 17.7884 15.6252 17.69 15.6324H15.89C15.7652 15.6324 15.5036 15.6 15.1868 15.3816C14.9432 15.2112 14.7032 14.9316 14.4692 14.6592C14.12 14.2536 13.8176 13.9032 13.5128 13.9032C13.4741 13.9031 13.4356 13.9092 13.3988 13.9212C13.1684 13.9956 12.8732 14.3244 12.8732 15.2004C12.8732 15.474 12.6572 15.6312 12.5048 15.6312H11.6804C11.3996 15.6312 9.93676 15.5328 8.64076 14.166C7.05436 12.492 5.62636 9.13438 5.61436 9.10318C5.52436 8.88598 5.71036 8.76958 5.91316 8.76958H7.73116C7.97356 8.76958 8.05276 8.91718 8.10796 9.04798C8.17276 9.20038 8.41036 9.80638 8.80036 10.488C9.43276 11.5992 9.82036 12.0504 10.1312 12.0504C10.1894 12.0497 10.2467 12.0349 10.298 12.0072C10.7036 11.7816 10.628 10.3356 10.61 10.0356C10.61 9.97918 10.6088 9.38878 10.4012 9.10558C10.2524 8.90038 9.99916 8.82238 9.84556 8.79358C9.90773 8.70779 9.98964 8.63823 10.0844 8.59078C10.3628 8.45158 10.8644 8.43118 11.3624 8.43118H11.6396C12.1796 8.43838 12.3188 8.47318 12.5144 8.52238C12.9104 8.61718 12.9188 8.87278 12.884 9.74758C12.8732 9.99598 12.8624 10.2768 12.8624 10.608C12.8624 10.68 12.8588 10.7568 12.8588 10.8384C12.8468 11.2836 12.8324 11.7888 13.1468 11.9964C13.1878 12.0221 13.2352 12.0358 13.2836 12.036C13.3928 12.036 13.7216 12.036 14.612 10.5084C14.8866 10.0167 15.1252 9.50575 15.326 8.97958C15.344 8.94838 15.3968 8.85238 15.4592 8.81518C15.5052 8.7917 15.5563 8.77976 15.608 8.78038H17.7452C17.978 8.78038 18.1376 8.81518 18.1676 8.90518C18.2204 9.04798 18.158 9.48358 17.1824 10.8048L16.7468 11.3796C15.8624 12.5388 15.8624 12.5976 16.802 13.4772Z" fill="#001242"/>
</svg>
